<mxfile host="65bd71144e">
    <diagram id="-xklDQDaMNjr98qvmkq-" name="PÃ¡gina-1">
        <mxGraphModel dx="1054" dy="607" grid="1" gridSize="10" guides="1" tooltips="1" connect="1" arrows="1" fold="1" page="1" pageScale="1" pageWidth="827" pageHeight="1169" math="0" shadow="0">
            <root>
                <mxCell id="0"/>
                <mxCell id="1" parent="0"/>
                <mxCell id="167" value="" style="rounded=0;whiteSpace=wrap;html=1;" parent="1" vertex="1">
                    <mxGeometry x="10" y="70" width="489" height="1000" as="geometry"/>
                </mxCell>
                <mxCell id="50" value="" style="rounded=0;whiteSpace=wrap;html=1;" parent="1" vertex="1">
                    <mxGeometry x="170" y="1110" width="315" height="420" as="geometry"/>
                </mxCell>
                <mxCell id="52" style="edgeStyle=none;html=1;entryX=1;entryY=0.5;entryDx=0;entryDy=0;" parent="1" source="11" target="50" edge="1">
                    <mxGeometry relative="1" as="geometry"/>
                </mxCell>
                <mxCell id="11" value="+X" style="ellipse;whiteSpace=wrap;html=1;" parent="1" vertex="1">
                    <mxGeometry x="525" y="1285" width="70" height="70" as="geometry"/>
                </mxCell>
                <mxCell id="17" value="" style="edgeStyle=none;html=1;" parent="1" source="14" target="16" edge="1">
                    <mxGeometry relative="1" as="geometry"/>
                </mxCell>
                <mxCell id="29" value="" style="edgeStyle=none;html=1;" parent="1" source="14" target="28" edge="1">
                    <mxGeometry relative="1" as="geometry"/>
                </mxCell>
                <mxCell id="14" value="X=0" style="rhombus;whiteSpace=wrap;html=1;" parent="1" vertex="1">
                    <mxGeometry x="365" y="1165" width="80" height="80" as="geometry"/>
                </mxCell>
                <mxCell id="207" value="" style="edgeStyle=none;html=1;entryX=0.5;entryY=0;entryDx=0;entryDy=0;" edge="1" parent="1" source="16" target="18">
                    <mxGeometry relative="1" as="geometry"/>
                </mxCell>
                <mxCell id="16" value="X-1" style="whiteSpace=wrap;html=1;" parent="1" vertex="1">
                    <mxGeometry x="226" y="1190" width="90" height="30" as="geometry"/>
                </mxCell>
                <mxCell id="23" value="" style="edgeStyle=none;html=1;" parent="1" source="18" target="22" edge="1">
                    <mxGeometry relative="1" as="geometry"/>
                </mxCell>
                <mxCell id="18" value="Y+1" style="whiteSpace=wrap;html=1;" parent="1" vertex="1">
                    <mxGeometry x="226" y="1240" width="90" height="30" as="geometry"/>
                </mxCell>
                <mxCell id="166" style="edgeStyle=none;html=1;exitX=0;exitY=0.5;exitDx=0;exitDy=0;fontSize=14;" parent="1" source="22" edge="1">
                    <mxGeometry relative="1" as="geometry">
                        <mxPoint x="402.5" y="1130" as="targetPoint"/>
                        <Array as="points">
                            <mxPoint x="182.5" y="1305"/>
                            <mxPoint x="182.5" y="1130"/>
                        </Array>
                    </mxGeometry>
                </mxCell>
                <mxCell id="22" value="A+1" style="whiteSpace=wrap;html=1;" parent="1" vertex="1">
                    <mxGeometry x="225" y="1290" width="90" height="30" as="geometry"/>
                </mxCell>
                <mxCell id="40" style="edgeStyle=none;html=1;entryX=1;entryY=0.5;entryDx=0;entryDy=0;" parent="1" source="28" target="32" edge="1">
                    <mxGeometry relative="1" as="geometry"/>
                </mxCell>
                <mxCell id="43" value="" style="edgeStyle=none;html=1;" parent="1" source="28" edge="1">
                    <mxGeometry relative="1" as="geometry">
                        <mxPoint x="405" y="1550" as="targetPoint"/>
                    </mxGeometry>
                </mxCell>
                <mxCell id="28" value="A=0" style="rhombus;whiteSpace=wrap;html=1;" parent="1" vertex="1">
                    <mxGeometry x="365" y="1380" width="80" height="80" as="geometry"/>
                </mxCell>
                <mxCell id="36" value="" style="edgeStyle=none;html=1;" parent="1" source="32" target="35" edge="1">
                    <mxGeometry relative="1" as="geometry"/>
                </mxCell>
                <mxCell id="32" value="A-1" style="whiteSpace=wrap;html=1;" parent="1" vertex="1">
                    <mxGeometry x="226" y="1405" width="90" height="30" as="geometry"/>
                </mxCell>
                <mxCell id="41" style="edgeStyle=none;html=1;exitX=0;exitY=0.5;exitDx=0;exitDy=0;" parent="1" source="35" edge="1">
                    <mxGeometry relative="1" as="geometry">
                        <mxPoint x="405" y="1350" as="targetPoint"/>
                        <Array as="points">
                            <mxPoint x="185" y="1475"/>
                            <mxPoint x="185" y="1350"/>
                        </Array>
                    </mxGeometry>
                </mxCell>
                <mxCell id="35" value="X+1" style="whiteSpace=wrap;html=1;" parent="1" vertex="1">
                    <mxGeometry x="225" y="1460" width="90" height="30" as="geometry"/>
                </mxCell>
                <mxCell id="47" value="" style="edgeStyle=none;html=1;" parent="1" source="45" target="46" edge="1">
                    <mxGeometry relative="1" as="geometry"/>
                </mxCell>
                <mxCell id="45" value="Y+1" style="whiteSpace=wrap;html=1;" parent="1" vertex="1">
                    <mxGeometry x="360" y="1550" width="90" height="30" as="geometry"/>
                </mxCell>
                <mxCell id="46" value="FIM" style="ellipse;whiteSpace=wrap;html=1;" parent="1" vertex="1">
                    <mxGeometry x="345" y="1660" width="120" height="60" as="geometry"/>
                </mxCell>
                <mxCell id="54" style="edgeStyle=none;html=1;entryX=1;entryY=0.5;entryDx=0;entryDy=0;" parent="1" source="53" target="45" edge="1">
                    <mxGeometry relative="1" as="geometry"/>
                </mxCell>
                <mxCell id="53" value="+1" style="ellipse;whiteSpace=wrap;html=1;" parent="1" vertex="1">
                    <mxGeometry x="525" y="1532.5" width="70" height="65" as="geometry"/>
                </mxCell>
                <mxCell id="57" style="edgeStyle=none;html=1;entryX=1;entryY=0.5;entryDx=0;entryDy=0;" parent="1" source="56" target="46" edge="1">
                    <mxGeometry relative="1" as="geometry"/>
                </mxCell>
                <mxCell id="56" value="&lt;font style=&quot;font-size: 14px&quot;&gt;X^2+x+1&lt;/font&gt;" style="ellipse;whiteSpace=wrap;html=1;" parent="1" vertex="1">
                    <mxGeometry x="525" y="1655" width="110" height="65" as="geometry"/>
                </mxCell>
                <mxCell id="62" value="" style="edgeStyle=none;html=1;fontSize=14;" parent="1" source="60" target="61" edge="1">
                    <mxGeometry relative="1" as="geometry"/>
                </mxCell>
                <mxCell id="60" value="X" style="ellipse;whiteSpace=wrap;html=1;" parent="1" vertex="1">
                    <mxGeometry x="340" width="120" height="60" as="geometry"/>
                </mxCell>
                <mxCell id="66" value="" style="edgeStyle=none;html=1;fontSize=14;" parent="1" source="61" target="65" edge="1">
                    <mxGeometry relative="1" as="geometry"/>
                </mxCell>
                <mxCell id="177" style="edgeStyle=none;html=1;exitX=0.5;exitY=1;exitDx=0;exitDy=0;fontSize=14;" parent="1" source="61" target="172" edge="1">
                    <mxGeometry relative="1" as="geometry"/>
                </mxCell>
                <mxCell id="61" value="X=0" style="rhombus;whiteSpace=wrap;html=1;" parent="1" vertex="1">
                    <mxGeometry x="360" y="100" width="80" height="80" as="geometry"/>
                </mxCell>
                <mxCell id="68" value="" style="edgeStyle=none;html=1;fontSize=14;" parent="1" source="65" target="67" edge="1">
                    <mxGeometry relative="1" as="geometry"/>
                </mxCell>
                <mxCell id="65" value="A+1" style="whiteSpace=wrap;html=1;" parent="1" vertex="1">
                    <mxGeometry x="236" y="125" width="90" height="30" as="geometry"/>
                </mxCell>
                <mxCell id="70" value="" style="edgeStyle=none;html=1;fontSize=14;" parent="1" source="67" edge="1">
                    <mxGeometry relative="1" as="geometry">
                        <mxPoint x="280" y="240" as="targetPoint"/>
                    </mxGeometry>
                </mxCell>
                <mxCell id="67" value="B+1" style="whiteSpace=wrap;html=1;" parent="1" vertex="1">
                    <mxGeometry x="235" y="180" width="90" height="30" as="geometry"/>
                </mxCell>
                <mxCell id="71" style="edgeStyle=none;html=1;exitX=0;exitY=0.5;exitDx=0;exitDy=0;fontSize=14;" parent="1" source="159" edge="1">
                    <mxGeometry relative="1" as="geometry">
                        <mxPoint x="400" y="80" as="targetPoint"/>
                        <Array as="points">
                            <mxPoint x="200" y="315"/>
                            <mxPoint x="200" y="80"/>
                        </Array>
                    </mxGeometry>
                </mxCell>
                <mxCell id="118" value="" style="edgeStyle=none;html=1;fontSize=14;exitX=0;exitY=0.5;exitDx=0;exitDy=0;entryX=0.5;entryY=0;entryDx=0;entryDy=0;" parent="1" source="95" target="144" edge="1">
                    <mxGeometry relative="1" as="geometry">
                        <mxPoint x="281" y="640" as="targetPoint"/>
                        <Array as="points">
                            <mxPoint x="281" y="610"/>
                        </Array>
                    </mxGeometry>
                </mxCell>
                <mxCell id="165" style="edgeStyle=none;html=1;exitX=0.5;exitY=1;exitDx=0;exitDy=0;fontSize=14;" parent="1" source="95" target="14" edge="1">
                    <mxGeometry relative="1" as="geometry"/>
                </mxCell>
                <mxCell id="95" value="A=0" style="rhombus;whiteSpace=wrap;html=1;" parent="1" vertex="1">
                    <mxGeometry x="360" y="570" width="80" height="80" as="geometry"/>
                </mxCell>
                <mxCell id="142" value="" style="edgeStyle=none;html=1;" parent="1" source="144" target="145" edge="1">
                    <mxGeometry relative="1" as="geometry"/>
                </mxCell>
                <mxCell id="143" value="" style="edgeStyle=none;html=1;" parent="1" source="144" target="151" edge="1">
                    <mxGeometry relative="1" as="geometry"/>
                </mxCell>
                <mxCell id="144" value="B=0" style="rhombus;whiteSpace=wrap;html=1;" parent="1" vertex="1">
                    <mxGeometry x="240" y="665" width="80" height="80" as="geometry"/>
                </mxCell>
                <mxCell id="163" value="" style="edgeStyle=none;html=1;fontSize=14;entryX=0.5;entryY=0;entryDx=0;entryDy=0;" parent="1" source="145" target="147" edge="1">
                    <mxGeometry relative="1" as="geometry"/>
                </mxCell>
                <mxCell id="145" value="B-1" style="whiteSpace=wrap;html=1;" parent="1" vertex="1">
                    <mxGeometry x="101" y="690" width="90" height="30" as="geometry"/>
                </mxCell>
                <mxCell id="164" value="" style="edgeStyle=none;html=1;fontSize=14;" parent="1" source="147" target="149" edge="1">
                    <mxGeometry relative="1" as="geometry"/>
                </mxCell>
                <mxCell id="147" value="Y+1" style="whiteSpace=wrap;html=1;" parent="1" vertex="1">
                    <mxGeometry x="100" y="745" width="90" height="30" as="geometry"/>
                </mxCell>
                <mxCell id="148" style="edgeStyle=none;html=1;exitX=0;exitY=0.5;exitDx=0;exitDy=0;" parent="1" source="149" edge="1">
                    <mxGeometry relative="1" as="geometry">
                        <mxPoint x="280" y="640" as="targetPoint"/>
                        <mxPoint x="50" y="805" as="sourcePoint"/>
                        <Array as="points">
                            <mxPoint x="60" y="815"/>
                            <mxPoint x="60" y="640"/>
                            <mxPoint x="210" y="640"/>
                        </Array>
                    </mxGeometry>
                </mxCell>
                <mxCell id="149" value="C+1" style="whiteSpace=wrap;html=1;" parent="1" vertex="1">
                    <mxGeometry x="100" y="800" width="90" height="30" as="geometry"/>
                </mxCell>
                <mxCell id="150" style="edgeStyle=none;html=1;entryX=1;entryY=0.5;entryDx=0;entryDy=0;" parent="1" source="151" target="153" edge="1">
                    <mxGeometry relative="1" as="geometry"/>
                </mxCell>
                <mxCell id="157" value="" style="edgeStyle=none;html=1;fontSize=14;" parent="1" source="151" target="156" edge="1">
                    <mxGeometry relative="1" as="geometry"/>
                </mxCell>
                <mxCell id="151" value="C=0" style="rhombus;whiteSpace=wrap;html=1;" parent="1" vertex="1">
                    <mxGeometry x="240" y="880" width="80" height="80" as="geometry"/>
                </mxCell>
                <mxCell id="152" value="" style="edgeStyle=none;html=1;" parent="1" source="153" target="155" edge="1">
                    <mxGeometry relative="1" as="geometry"/>
                </mxCell>
                <mxCell id="153" value="C-1" style="whiteSpace=wrap;html=1;" parent="1" vertex="1">
                    <mxGeometry x="101" y="905" width="90" height="30" as="geometry"/>
                </mxCell>
                <mxCell id="154" style="edgeStyle=none;html=1;exitX=0;exitY=0.5;exitDx=0;exitDy=0;" parent="1" source="155" edge="1">
                    <mxGeometry relative="1" as="geometry">
                        <mxPoint x="280" y="850" as="targetPoint"/>
                        <Array as="points">
                            <mxPoint x="60" y="975"/>
                            <mxPoint x="60" y="850"/>
                        </Array>
                    </mxGeometry>
                </mxCell>
                <mxCell id="155" value="B+1" style="whiteSpace=wrap;html=1;" parent="1" vertex="1">
                    <mxGeometry x="100" y="960" width="90" height="30" as="geometry"/>
                </mxCell>
                <mxCell id="158" style="edgeStyle=none;html=1;fontSize=14;" parent="1" source="156" edge="1">
                    <mxGeometry relative="1" as="geometry">
                        <mxPoint x="400" y="540" as="targetPoint"/>
                        <Array as="points">
                            <mxPoint x="40" y="1035"/>
                            <mxPoint x="40" y="540"/>
                        </Array>
                    </mxGeometry>
                </mxCell>
                <mxCell id="156" value="A-1" style="whiteSpace=wrap;html=1;" parent="1" vertex="1">
                    <mxGeometry x="235" y="1020" width="90" height="30" as="geometry"/>
                </mxCell>
                <mxCell id="159" value="X-1" style="whiteSpace=wrap;html=1;" parent="1" vertex="1">
                    <mxGeometry x="236" y="300" width="90" height="30" as="geometry"/>
                </mxCell>
                <mxCell id="170" value="" style="edgeStyle=none;html=1;fontSize=14;entryX=1;entryY=0.5;entryDx=0;entryDy=0;" parent="1" source="168" edge="1">
                    <mxGeometry relative="1" as="geometry">
                        <mxPoint x="500" y="670" as="targetPoint"/>
                    </mxGeometry>
                </mxCell>
                <mxCell id="168" value="X^2" style="ellipse;whiteSpace=wrap;html=1;" parent="1" vertex="1">
                    <mxGeometry x="580" y="635" width="70" height="70" as="geometry"/>
                </mxCell>
                <mxCell id="171" style="edgeStyle=none;html=1;entryX=1;entryY=0.5;entryDx=0;entryDy=0;" parent="1" target="174" edge="1">
                    <mxGeometry relative="1" as="geometry">
                        <mxPoint x="382.5" y="430" as="sourcePoint"/>
                    </mxGeometry>
                </mxCell>
                <mxCell id="180" value="" style="edgeStyle=none;html=1;fontSize=14;" parent="1" source="172" target="95" edge="1">
                    <mxGeometry relative="1" as="geometry"/>
                </mxCell>
                <mxCell id="172" value="C=0" style="rhombus;whiteSpace=wrap;html=1;" parent="1" vertex="1">
                    <mxGeometry x="362.5" y="390" width="80" height="80" as="geometry"/>
                </mxCell>
                <mxCell id="173" value="" style="edgeStyle=none;html=1;" parent="1" source="174" target="176" edge="1">
                    <mxGeometry relative="1" as="geometry"/>
                </mxCell>
                <mxCell id="174" value="C-1" style="whiteSpace=wrap;html=1;" parent="1" vertex="1">
                    <mxGeometry x="243.5" y="415" width="90" height="30" as="geometry"/>
                </mxCell>
                <mxCell id="175" style="edgeStyle=none;html=1;exitX=0;exitY=0.5;exitDx=0;exitDy=0;" parent="1" source="176" edge="1">
                    <mxGeometry relative="1" as="geometry">
                        <mxPoint x="402.5" y="360" as="targetPoint"/>
                        <Array as="points">
                            <mxPoint x="202.5" y="485"/>
                            <mxPoint x="202.5" y="360"/>
                        </Array>
                    </mxGeometry>
                </mxCell>
                <mxCell id="176" value="X+1" style="whiteSpace=wrap;html=1;" parent="1" vertex="1">
                    <mxGeometry x="242.5" y="470" width="90" height="30" as="geometry"/>
                </mxCell>
                <mxCell id="179" value="" style="edgeStyle=none;html=1;fontSize=14;" parent="1" source="178" target="159" edge="1">
                    <mxGeometry relative="1" as="geometry"/>
                </mxCell>
                <mxCell id="178" value="C+1" style="whiteSpace=wrap;html=1;" parent="1" vertex="1">
                    <mxGeometry x="235" y="240" width="90" height="30" as="geometry"/>
                </mxCell>
                <mxCell id="181" value="1" style="text;html=1;strokeColor=none;fillColor=none;align=center;verticalAlign=middle;whiteSpace=wrap;rounded=0;" parent="1" vertex="1">
                    <mxGeometry x="405" y="95" width="60" height="30" as="geometry"/>
                </mxCell>
                <mxCell id="182" value="2" style="text;html=1;strokeColor=none;fillColor=none;align=center;verticalAlign=middle;whiteSpace=wrap;rounded=0;" parent="1" vertex="1">
                    <mxGeometry x="191" y="125" width="60" height="30" as="geometry"/>
                </mxCell>
                <mxCell id="183" value="3" style="text;html=1;strokeColor=none;fillColor=none;align=center;verticalAlign=middle;whiteSpace=wrap;rounded=0;" parent="1" vertex="1">
                    <mxGeometry x="191" y="180" width="60" height="30" as="geometry"/>
                </mxCell>
                <mxCell id="184" value="4" style="text;html=1;strokeColor=none;fillColor=none;align=center;verticalAlign=middle;whiteSpace=wrap;rounded=0;" parent="1" vertex="1">
                    <mxGeometry x="190" y="240" width="60" height="30" as="geometry"/>
                </mxCell>
                <mxCell id="185" value="5" style="text;html=1;strokeColor=none;fillColor=none;align=center;verticalAlign=middle;whiteSpace=wrap;rounded=0;" parent="1" vertex="1">
                    <mxGeometry x="316" y="300" width="60" height="30" as="geometry"/>
                </mxCell>
                <mxCell id="187" value="6" style="text;html=1;strokeColor=none;fillColor=none;align=center;verticalAlign=middle;whiteSpace=wrap;rounded=0;" parent="1" vertex="1">
                    <mxGeometry x="405" y="385" width="60" height="30" as="geometry"/>
                </mxCell>
                <mxCell id="188" value="7" style="text;html=1;strokeColor=none;fillColor=none;align=center;verticalAlign=middle;whiteSpace=wrap;rounded=0;" parent="1" vertex="1">
                    <mxGeometry x="200" y="415" width="60" height="30" as="geometry"/>
                </mxCell>
                <mxCell id="189" value="8" style="text;html=1;strokeColor=none;fillColor=none;align=center;verticalAlign=middle;whiteSpace=wrap;rounded=0;" parent="1" vertex="1">
                    <mxGeometry x="320" y="470" width="60" height="30" as="geometry"/>
                </mxCell>
                <mxCell id="190" value="9" style="text;html=1;strokeColor=none;fillColor=none;align=center;verticalAlign=middle;whiteSpace=wrap;rounded=0;" parent="1" vertex="1">
                    <mxGeometry x="400" y="570" width="60" height="30" as="geometry"/>
                </mxCell>
                <mxCell id="191" value="10" style="text;html=1;strokeColor=none;fillColor=none;align=center;verticalAlign=middle;whiteSpace=wrap;rounded=0;" parent="1" vertex="1">
                    <mxGeometry x="280" y="660" width="60" height="30" as="geometry"/>
                </mxCell>
                <mxCell id="192" value="11" style="text;html=1;strokeColor=none;fillColor=none;align=center;verticalAlign=middle;whiteSpace=wrap;rounded=0;" parent="1" vertex="1">
                    <mxGeometry x="50" y="690" width="60" height="30" as="geometry"/>
                </mxCell>
                <mxCell id="193" value="12" style="text;html=1;strokeColor=none;fillColor=none;align=center;verticalAlign=middle;whiteSpace=wrap;rounded=0;" parent="1" vertex="1">
                    <mxGeometry x="50" y="745" width="60" height="30" as="geometry"/>
                </mxCell>
                <mxCell id="194" value="13" style="text;html=1;strokeColor=none;fillColor=none;align=center;verticalAlign=middle;whiteSpace=wrap;rounded=0;" parent="1" vertex="1">
                    <mxGeometry x="180" y="800" width="60" height="30" as="geometry"/>
                </mxCell>
                <mxCell id="195" value="14" style="text;html=1;strokeColor=none;fillColor=none;align=center;verticalAlign=middle;whiteSpace=wrap;rounded=0;" parent="1" vertex="1">
                    <mxGeometry x="280" y="875" width="60" height="30" as="geometry"/>
                </mxCell>
                <mxCell id="196" value="15" style="text;html=1;strokeColor=none;fillColor=none;align=center;verticalAlign=middle;whiteSpace=wrap;rounded=0;" parent="1" vertex="1">
                    <mxGeometry x="50" y="905" width="60" height="30" as="geometry"/>
                </mxCell>
                <mxCell id="197" value="16" style="text;html=1;strokeColor=none;fillColor=none;align=center;verticalAlign=middle;whiteSpace=wrap;rounded=0;" parent="1" vertex="1">
                    <mxGeometry x="176" y="960" width="60" height="30" as="geometry"/>
                </mxCell>
                <mxCell id="198" value="17" style="text;html=1;strokeColor=none;fillColor=none;align=center;verticalAlign=middle;whiteSpace=wrap;rounded=0;" parent="1" vertex="1">
                    <mxGeometry x="316" y="1020" width="60" height="30" as="geometry"/>
                </mxCell>
                <mxCell id="199" value="18" style="text;html=1;strokeColor=none;fillColor=none;align=center;verticalAlign=middle;whiteSpace=wrap;rounded=0;" parent="1" vertex="1">
                    <mxGeometry x="405" y="1160" width="60" height="30" as="geometry"/>
                </mxCell>
                <mxCell id="200" value="19" style="text;html=1;strokeColor=none;fillColor=none;align=center;verticalAlign=middle;whiteSpace=wrap;rounded=0;" parent="1" vertex="1">
                    <mxGeometry x="176" y="1190" width="60" height="30" as="geometry"/>
                </mxCell>
                <mxCell id="201" value="20" style="text;html=1;strokeColor=none;fillColor=none;align=center;verticalAlign=middle;whiteSpace=wrap;rounded=0;" parent="1" vertex="1">
                    <mxGeometry x="175" y="1240" width="60" height="30" as="geometry"/>
                </mxCell>
                <mxCell id="202" value="21" style="text;html=1;strokeColor=none;fillColor=none;align=center;verticalAlign=middle;whiteSpace=wrap;rounded=0;" parent="1" vertex="1">
                    <mxGeometry x="302.5" y="1290" width="60" height="30" as="geometry"/>
                </mxCell>
                <mxCell id="203" value="22" style="text;html=1;strokeColor=none;fillColor=none;align=center;verticalAlign=middle;whiteSpace=wrap;rounded=0;" parent="1" vertex="1">
                    <mxGeometry x="405" y="1380" width="60" height="30" as="geometry"/>
                </mxCell>
                <mxCell id="204" value="23" style="text;html=1;strokeColor=none;fillColor=none;align=center;verticalAlign=middle;whiteSpace=wrap;rounded=0;" parent="1" vertex="1">
                    <mxGeometry x="176" y="1405" width="60" height="30" as="geometry"/>
                </mxCell>
                <mxCell id="205" value="24" style="text;html=1;strokeColor=none;fillColor=none;align=center;verticalAlign=middle;whiteSpace=wrap;rounded=0;" parent="1" vertex="1">
                    <mxGeometry x="305" y="1460" width="60" height="30" as="geometry"/>
                </mxCell>
                <mxCell id="206" value="25" style="text;html=1;strokeColor=none;fillColor=none;align=center;verticalAlign=middle;whiteSpace=wrap;rounded=0;" parent="1" vertex="1">
                    <mxGeometry x="305" y="1550" width="60" height="30" as="geometry"/>
                </mxCell>
            </root>
        </mxGraphModel>
    </diagram>
</mxfile>